<?xml version="1.0" encoding="UTF-8" standalone="no"?>
<!DOCTYPE svg PUBLIC "-//W3C//DTD SVG 1.1//EN"
 "http://www.w3.org/Graphics/SVG/1.1/DTD/svg11.dtd">
<!-- Generated by graphviz version 2.42.4 (0)
 -->
<!-- Title: Indus AWS architecture Pages: 1 -->
<svg width="2435pt" height="1419pt"
 viewBox="0.00 0.00 2434.60 1419.10" xmlns="http://www.w3.org/2000/svg" xmlns:xlink="http://www.w3.org/1999/xlink">
<g id="graph0" class="graph" transform="scale(1 1) rotate(0) translate(100.8 1318.3)">
<title>Indus AWS architecture</title>
<polygon fill="white" stroke="transparent" points="-100.8,100.8 -100.8,-1318.3 2333.8,-1318.3 2333.8,100.8 -100.8,100.8"/>
<text text-anchor="middle" x="1116.5" y="-10" font-family="Arial" font-size="20.00" fill="#2d3436">Indus AWS architecture</text>
<g id="clust1" class="cluster">
<title>cluster_AWS account · us&#45;east&#45;1</title>
<path fill="#e5f5fd" stroke="#aeb6be" d="M692,-200.5C692,-200.5 2213,-200.5 2213,-200.5 2219,-200.5 2225,-206.5 2225,-212.5 2225,-212.5 2225,-1197.5 2225,-1197.5 2225,-1203.5 2219,-1209.5 2213,-1209.5 2213,-1209.5 692,-1209.5 692,-1209.5 686,-1209.5 680,-1203.5 680,-1197.5 680,-1197.5 680,-212.5 680,-212.5 680,-206.5 686,-200.5 692,-200.5"/>
<text text-anchor="middle" x="761" y="-1195.9" font-family="Sans-Serif" font-size="12.00" fill="#2d3436">AWS account · us&#45;east&#45;1</text>
</g>
<g id="clust3" class="cluster">
<title>cluster_Private subnets · active workload AZ</title>
<path fill="#ebf3e7" stroke="#aeb6be" d="M1197,-232.5C1197,-232.5 1717,-232.5 1717,-232.5 1723,-232.5 1729,-238.5 1729,-244.5 1729,-244.5 1729,-435.5 1729,-435.5 1729,-441.5 1723,-447.5 1717,-447.5 1717,-447.5 1197,-447.5 1197,-447.5 1191,-447.5 1185,-441.5 1185,-435.5 1185,-435.5 1185,-244.5 1185,-244.5 1185,-238.5 1191,-232.5 1197,-232.5"/>
<text text-anchor="middle" x="1302" y="-433.9" font-family="Sans-Serif" font-size="12.00" fill="#2d3436">Private subnets · active workload AZ</text>
</g>
<g id="clust2" class="cluster">
<title>cluster_Public subnets · two AZs</title>
<path fill="#ebf3e7" stroke="#aeb6be" d="M724,-232.5C724,-232.5 861,-232.5 861,-232.5 867,-232.5 873,-238.5 873,-244.5 873,-244.5 873,-435.5 873,-435.5 873,-441.5 867,-447.5 861,-447.5 861,-447.5 724,-447.5 724,-447.5 718,-447.5 712,-441.5 712,-435.5 712,-435.5 712,-244.5 712,-244.5 712,-238.5 718,-232.5 724,-232.5"/>
<text text-anchor="middle" x="792.5" y="-433.9" font-family="Sans-Serif" font-size="12.00" fill="#2d3436">Public subnets · two AZs</text>
</g>
<g id="clust4" class="cluster">
<title>cluster_Private data boundary · two AZs</title>
<path fill="#ebf3e7" stroke="#aeb6be" d="M1584,-479.5C1584,-479.5 2181,-479.5 2181,-479.5 2187,-479.5 2193,-485.5 2193,-491.5 2193,-491.5 2193,-1144.5 2193,-1144.5 2193,-1150.5 2187,-1156.5 2181,-1156.5 2181,-1156.5 1584,-1156.5 1584,-1156.5 1578,-1156.5 1572,-1150.5 1572,-1144.5 1572,-1144.5 1572,-491.5 1572,-491.5 1572,-485.5 1578,-479.5 1584,-479.5"/>
<text text-anchor="middle" x="1676.5" y="-1142.9" font-family="Sans-Serif" font-size="12.00" fill="#2d3436">Private data boundary · two AZs</text>
</g>
<!-- ee8e8da3bd56468abb149a6b12a2c62b -->
<g id="node1" class="node">
<title>ee8e8da3bd56468abb149a6b12a2c62b</title>
<image xlink:href="/usr/local/lib/python3.12/site-packages/resources/onprem/client/users.png" width="101px" height="101px" preserveAspectRatio="xMinYMin meet" x="0" y="-380"/>
<text text-anchor="middle" x="50.5" y="-264.8" font-family="Arial" font-size="14.00" fill="#2d3436">Users</text>
</g>
<!-- 5b5d750b29b9479cb30cf71dfa0f670c -->
<g id="node3" class="node">
<title>5b5d750b29b9479cb30cf71dfa0f670c</title>
<image xlink:href="/usr/local/lib/python3.12/site-packages/resources/aws/network/route-53.png" width="101px" height="101px" preserveAspectRatio="xMinYMin meet" x="232" y="-380"/>
<text text-anchor="middle" x="282.5" y="-264.8" font-family="Arial" font-size="14.00" fill="#2d3436">Route 53</text>
</g>
<!-- ee8e8da3bd56468abb149a6b12a2c62b&#45;&gt;5b5d750b29b9479cb30cf71dfa0f670c -->
<g id="edge1" class="edge">
<title>ee8e8da3bd56468abb149a6b12a2c62b&#45;&gt;5b5d750b29b9479cb30cf71dfa0f670c</title>
<path fill="none" stroke="#7b8894" d="M101.13,-329.5C101.13,-329.5 221.98,-329.5 221.98,-329.5"/>
<polygon fill="#7b8894" stroke="#7b8894" points="221.98,-333 231.98,-329.5 221.98,-326 221.98,-333"/>
</g>
<!-- 61acc8b6e4f44cabaebbcf3501a8a3a5 -->
<g id="node2" class="node">
<title>61acc8b6e4f44cabaebbcf3501a8a3a5</title>
<image xlink:href="/usr/local/lib/python3.12/site-packages/resources/onprem/vcs/github.png" width="101px" height="101px" preserveAspectRatio="xMinYMin meet" x="742" y="-149"/>
<text text-anchor="middle" x="792.5" y="-33.8" font-family="Arial" font-size="14.00" fill="#2d3436">GitHub Actions</text>
</g>
<!-- e7597c0eb4394eb3baccf1b8b1f37970 -->
<g id="node6" class="node">
<title>e7597c0eb4394eb3baccf1b8b1f37970</title>
<image xlink:href="/usr/local/lib/python3.12/site-packages/resources/aws/compute/elastic-kubernetes-service.png" width="101px" height="101px" preserveAspectRatio="xMinYMin meet" x="1213" y="-380"/>
<text text-anchor="middle" x="1263.5" y="-264.8" font-family="Arial" font-size="14.00" fill="#2d3436">EKS workloads</text>
</g>
<!-- 61acc8b6e4f44cabaebbcf3501a8a3a5&#45;&gt;e7597c0eb4394eb3baccf1b8b1f37970 -->
<g id="edge5" class="edge">
<title>61acc8b6e4f44cabaebbcf3501a8a3a5&#45;&gt;e7597c0eb4394eb3baccf1b8b1f37970</title>
<path fill="none" stroke="#7b8894" d="M843.41,-98.5C965.33,-98.5 1264,-98.5 1264,-98.5 1264,-98.5 1264,-250.82 1264,-250.82"/>
<polygon fill="#7b8894" stroke="#7b8894" points="1260.5,-250.82 1264,-260.82 1267.5,-250.82 1260.5,-250.82"/>
<text text-anchor="middle" x="1045" y="-102.1" font-family="Sans-Serif" font-size="13.00" fill="#2d3436">immutable image and data job</text>
</g>
<!-- 65f5eab1263043909fa043d8519756b0 -->
<g id="node4" class="node">
<title>65f5eab1263043909fa043d8519756b0</title>
<image xlink:href="/usr/local/lib/python3.12/site-packages/resources/aws/network/cloudfront.png" width="101px" height="101px" preserveAspectRatio="xMinYMin meet" x="464" y="-380"/>
<text text-anchor="middle" x="514.5" y="-264.8" font-family="Arial" font-size="14.00" fill="#2d3436">CloudFront</text>
</g>
<!-- 5b5d750b29b9479cb30cf71dfa0f670c&#45;&gt;65f5eab1263043909fa043d8519756b0 -->
<g id="edge2" class="edge">
<title>5b5d750b29b9479cb30cf71dfa0f670c&#45;&gt;65f5eab1263043909fa043d8519756b0</title>
<path fill="none" stroke="#7b8894" d="M333.13,-329.5C333.13,-329.5 453.98,-329.5 453.98,-329.5"/>
<polygon fill="#7b8894" stroke="#7b8894" points="453.98,-333 463.98,-329.5 453.98,-326 453.98,-333"/>
</g>
<!-- 5546f899933b4e25af818e9484b15df1 -->
<g id="node5" class="node">
<title>5546f899933b4e25af818e9484b15df1</title>
<image xlink:href="/usr/local/lib/python3.12/site-packages/resources/aws/network/elastic-load-balancing.png" width="101px" height="101px" preserveAspectRatio="xMinYMin meet" x="742" y="-380"/>
<text text-anchor="middle" x="792.5" y="-264.8" font-family="Arial" font-size="14.00" fill="#2d3436">Application Load Balancer</text>
</g>
<!-- 65f5eab1263043909fa043d8519756b0&#45;&gt;5546f899933b4e25af818e9484b15df1 -->
<g id="edge3" class="edge">
<title>65f5eab1263043909fa043d8519756b0&#45;&gt;5546f899933b4e25af818e9484b15df1</title>
<path fill="none" stroke="#7b8894" d="M565.17,-329.5C565.17,-329.5 731.71,-329.5 731.71,-329.5"/>
<polygon fill="#7b8894" stroke="#7b8894" points="731.71,-333 741.71,-329.5 731.71,-326 731.71,-333"/>
<text text-anchor="middle" x="651" y="-333.1" font-family="Sans-Serif" font-size="13.00" fill="#2d3436">HTTPS</text>
</g>
<!-- 5546f899933b4e25af818e9484b15df1&#45;&gt;e7597c0eb4394eb3baccf1b8b1f37970 -->
<g id="edge4" class="edge">
<title>5546f899933b4e25af818e9484b15df1&#45;&gt;e7597c0eb4394eb3baccf1b8b1f37970</title>
<path fill="none" stroke="#7b8894" d="M843.35,-329.5C843.35,-329.5 1202.86,-329.5 1202.86,-329.5"/>
<polygon fill="#7b8894" stroke="#7b8894" points="1202.86,-333 1212.86,-329.5 1202.86,-326 1202.86,-333"/>
</g>
<!-- 34a69949326341799164d7b47e8ed2a1 -->
<g id="node7" class="node">
<title>34a69949326341799164d7b47e8ed2a1</title>
<image xlink:href="/usr/local/lib/python3.12/site-packages/resources/aws/security/secrets-manager.png" width="101px" height="101px" preserveAspectRatio="xMinYMin meet" x="1600" y="-380"/>
<text text-anchor="middle" x="1650.5" y="-264.8" font-family="Arial" font-size="14.00" fill="#2d3436">Runtime secrets</text>
</g>
<!-- e7597c0eb4394eb3baccf1b8b1f37970&#45;&gt;34a69949326341799164d7b47e8ed2a1 -->
<g id="edge8" class="edge">
<title>e7597c0eb4394eb3baccf1b8b1f37970&#45;&gt;34a69949326341799164d7b47e8ed2a1</title>
<path fill="none" stroke="#7b8894" d="M1314.09,-329.5C1314.09,-329.5 1589.89,-329.5 1589.89,-329.5"/>
<polygon fill="#7b8894" stroke="#7b8894" points="1589.89,-333 1599.89,-329.5 1589.89,-326 1589.89,-333"/>
</g>
<!-- e10d8b827f934d08bacd170af94a2360 -->
<g id="node9" class="node">
<title>e10d8b827f934d08bacd170af94a2360</title>
<image xlink:href="/usr/local/lib/python3.12/site-packages/resources/aws/database/rds.png" width="101px" height="101px" preserveAspectRatio="xMinYMin meet" x="1600" y="-627"/>
<text text-anchor="middle" x="1650.5" y="-511.8" font-family="Arial" font-size="14.00" fill="#2d3436">RDS Proxy</text>
</g>
<!-- e7597c0eb4394eb3baccf1b8b1f37970&#45;&gt;e10d8b827f934d08bacd170af94a2360 -->
<g id="edge6" class="edge">
<title>e7597c0eb4394eb3baccf1b8b1f37970&#45;&gt;e10d8b827f934d08bacd170af94a2360</title>
<path fill="none" stroke="#7b8894" d="M1289,-398.3C1289,-471.39 1289,-576.5 1289,-576.5 1289,-576.5 1589.85,-576.5 1589.85,-576.5"/>
<polygon fill="#7b8894" stroke="#7b8894" points="1589.85,-580 1599.85,-576.5 1589.85,-573 1589.85,-580"/>
<text text-anchor="middle" x="1457" y="-506.1" font-family="Sans-Serif" font-size="13.00" fill="#2d3436">TLS</text>
</g>
<!-- b93454030e124de7ba4b453777a59c66 -->
<g id="node10" class="node">
<title>b93454030e124de7ba4b453777a59c66</title>
<image xlink:href="/usr/local/lib/python3.12/site-packages/resources/aws/security/cognito.png" width="101px" height="101px" preserveAspectRatio="xMinYMin meet" x="1600" y="-858"/>
<text text-anchor="middle" x="1650.5" y="-742.8" font-family="Arial" font-size="14.00" fill="#2d3436">Cognito user pool</text>
</g>
<!-- e7597c0eb4394eb3baccf1b8b1f37970&#45;&gt;b93454030e124de7ba4b453777a59c66 -->
<g id="edge9" class="edge">
<title>e7597c0eb4394eb3baccf1b8b1f37970&#45;&gt;b93454030e124de7ba4b453777a59c66</title>
<path fill="none" stroke="#7b8894" d="M1264,-398.24C1264,-530.51 1264,-807.5 1264,-807.5 1264,-807.5 1589.97,-807.5 1589.97,-807.5"/>
<polygon fill="#7b8894" stroke="#7b8894" points="1589.97,-811 1599.97,-807.5 1589.97,-804 1589.97,-811"/>
</g>
<!-- 3b08b4686d874020b34d8a9698eabd7c -->
<g id="node11" class="node">
<title>3b08b4686d874020b34d8a9698eabd7c</title>
<image xlink:href="/usr/local/lib/python3.12/site-packages/resources/aws/storage/simple-storage-service-s3.png" width="101px" height="101px" preserveAspectRatio="xMinYMin meet" x="1600" y="-1089"/>
<text text-anchor="middle" x="1650.5" y="-973.8" font-family="Arial" font-size="14.00" fill="#2d3436">Encrypted export and audit buckets</text>
</g>
<!-- e7597c0eb4394eb3baccf1b8b1f37970&#45;&gt;3b08b4686d874020b34d8a9698eabd7c -->
<g id="edge10" class="edge">
<title>e7597c0eb4394eb3baccf1b8b1f37970&#45;&gt;3b08b4686d874020b34d8a9698eabd7c</title>
<path fill="none" stroke="#7b8894" d="M1239,-398.13C1239,-576.06 1239,-1038.5 1239,-1038.5 1239,-1038.5 1589.63,-1038.5 1589.63,-1038.5"/>
<polygon fill="#7b8894" stroke="#7b8894" points="1589.63,-1042 1599.63,-1038.5 1589.63,-1035 1589.63,-1042"/>
<text text-anchor="middle" x="1457" y="-905.1" font-family="Sans-Serif" font-size="13.00" fill="#2d3436">verified export artifacts</text>
</g>
<!-- dee07a9ef0d54fa78e3064d5cfe86f89 -->
<g id="node8" class="node">
<title>dee07a9ef0d54fa78e3064d5cfe86f89</title>
<image xlink:href="/usr/local/lib/python3.12/site-packages/resources/aws/database/aurora.png" width="101px" height="101px" preserveAspectRatio="xMinYMin meet" x="1832" y="-627"/>
<text text-anchor="middle" x="1882.5" y="-511.8" font-family="Arial" font-size="14.00" fill="#2d3436">Aurora PostgreSQL</text>
</g>
<!-- cf289700d6f44d32a6014bac83d90feb -->
<g id="node12" class="node">
<title>cf289700d6f44d32a6014bac83d90feb</title>
<image xlink:href="/usr/local/lib/python3.12/site-packages/resources/aws/management/cloudwatch.png" width="101px" height="101px" preserveAspectRatio="xMinYMin meet" x="2064" y="-627"/>
<text text-anchor="middle" x="2114.5" y="-511.8" font-family="Arial" font-size="14.00" fill="#2d3436">Database and application logs</text>
</g>
<!-- dee07a9ef0d54fa78e3064d5cfe86f89&#45;&gt;cf289700d6f44d32a6014bac83d90feb -->
<g id="edge11" class="edge">
<title>dee07a9ef0d54fa78e3064d5cfe86f89&#45;&gt;cf289700d6f44d32a6014bac83d90feb</title>
<path fill="none" stroke="#7b8894" d="M1933.13,-576.5C1933.13,-576.5 2053.98,-576.5 2053.98,-576.5"/>
<polygon fill="#7b8894" stroke="#7b8894" points="2053.98,-580 2063.98,-576.5 2053.98,-573 2053.98,-580"/>
</g>
<!-- e10d8b827f934d08bacd170af94a2360&#45;&gt;dee07a9ef0d54fa78e3064d5cfe86f89 -->
<g id="edge7" class="edge">
<title>e10d8b827f934d08bacd170af94a2360&#45;&gt;dee07a9ef0d54fa78e3064d5cfe86f89</title>
<path fill="none" stroke="#7b8894" d="M1701.13,-576.5C1701.13,-576.5 1821.98,-576.5 1821.98,-576.5"/>
<polygon fill="#7b8894" stroke="#7b8894" points="1821.98,-580 1831.98,-576.5 1821.98,-573 1821.98,-580"/>
</g>
</g>
</svg>
